<svg id="visual" viewBox="0 0 960 540" width="960" height="540" xmlns="http://www.w3.org/2000/svg" xmlns:xlink="http://www.w3.org/1999/xlink" version="1.1"><rect width="960" height="540" fill="#103452"></rect><g><g transform="translate(119 148)"><path d="M0 -47.6L20.6 -42.9L37.2 -29.7L46.4 -10.6L46.4 10.6L37.2 29.7L20.6 42.9L0 47.6L-20.6 42.9L-37.2 29.7L-46.4 10.6L-46.4 -10.6L-37.2 -29.7L-20.6 -42.9Z" fill="none" stroke="#297EA6" stroke-width="2"></path></g><g transform="translate(595 85)"><path d="M0 -46L20 -41.4L36 -28.7L44.8 -10.2L44.8 10.2L36 28.7L20 41.4L0 46L-20 41.4L-36 28.7L-44.8 10.2L-44.8 -10.2L-36 -28.7L-20 -41.4Z" fill="none" stroke="#297EA6" stroke-width="2"></path></g><g transform="translate(203 221)"><path d="M0 -41L17.8 -36.9L32.1 -25.6L40 -9.1L40 9.1L32.1 25.6L17.8 36.9L0 41L-17.8 36.9L-32.1 25.6L-40 9.1L-40 -9.1L-32.1 -25.6L-17.8 -36.9Z" fill="none" stroke="#297EA6" stroke-width="2"></path></g><g transform="translate(755 422)"><path d="M0 -43L18.7 -38.7L33.6 -26.8L41.9 -9.6L41.9 9.6L33.6 26.8L18.7 38.7L0 43L-18.7 38.7L-33.6 26.8L-41.9 9.6L-41.9 -9.6L-33.6 -26.8L-18.7 -38.7Z" fill="none" stroke="#297EA6" stroke-width="2"></path></g><g transform="translate(133 315)"><path d="M0 -45L19.5 -40.5L35.2 -28.1L43.9 -10L43.9 10L35.2 28.1L19.5 40.5L0 45L-19.5 40.5L-35.2 28.1L-43.9 10L-43.9 -10L-35.2 -28.1L-19.5 -40.5Z" stroke="#297EA6" fill="none" stroke-width="2"></path></g><g transform="translate(485 3)"><path d="M0 -43L18.7 -38.7L33.6 -26.8L41.9 -9.6L41.9 9.6L33.6 26.8L18.7 38.7L0 43L-18.7 38.7L-33.6 26.8L-41.9 9.6L-41.9 -9.6L-33.6 -26.8L-18.7 -38.7Z" stroke="#297EA6" fill="none" stroke-width="2"></path></g></g></svg>